<svg width="12" height="14" viewBox="0 0 12 14" fill="none" xmlns="http://www.w3.org/2000/svg">
<path d="M10.745 1.28113C9.07278 -0.427045 6.34971 -0.427045 4.6793 1.28113L0.0461703 6.01036C0.0159928 6.04119 1.6411e-05 6.0829 1.6411e-05 6.12642C1.6411e-05 6.16994 0.0159928 6.21164 0.0461703 6.24247L0.701199 6.9116C0.73114 6.94205 0.77167 6.95915 0.81392 6.95915C0.856171 6.95915 0.896701 6.94205 0.926642 6.9116L5.55977 2.18237C6.13492 1.59484 6.9 1.27207 7.71302 1.27207C8.52604 1.27207 9.29112 1.59484 9.8645 2.18237C10.4396 2.7699 10.7556 3.55145 10.7556 4.38016C10.7556 5.21067 10.4396 5.99042 9.8645 6.57794L5.14261 11.3997L4.37752 12.1812C3.66214 12.912 2.49942 12.912 1.78404 12.1812C1.43788 11.8276 1.24794 11.3579 1.24794 10.8575C1.24794 10.357 1.43788 9.88731 1.78404 9.53371L6.46864 4.75008C6.58758 4.6304 6.74379 4.56331 6.91065 4.56331H6.91243C7.07929 4.56331 7.23373 4.6304 7.35089 4.75008C7.46983 4.87158 7.53373 5.03115 7.53373 5.20161C7.53373 5.37025 7.46805 5.52982 7.35089 5.6495L3.5219 9.55728C3.49173 9.58811 3.47575 9.62982 3.47575 9.67334C3.47575 9.71686 3.49173 9.75856 3.5219 9.78939L4.17693 10.4585C4.20687 10.489 4.2474 10.5061 4.28965 10.5061C4.3319 10.5061 4.37243 10.489 4.40238 10.4585L8.22959 6.54893C8.58284 6.18807 8.77633 5.70935 8.77633 5.19979C8.77633 4.69024 8.58107 4.2097 8.22959 3.85066C7.5 3.10537 6.31421 3.10718 5.58462 3.85066L5.13018 4.31669L0.90179 8.63428C0.614804 8.92573 0.387315 9.27248 0.232517 9.65442C0.0777182 10.0364 -0.00130947 10.4459 1.6411e-05 10.8593C1.6411e-05 11.6989 0.321318 12.4877 0.90179 13.0806C1.50356 13.6935 2.29173 14 3.07989 14C3.86806 14 4.65622 13.6935 5.25622 13.0806L10.745 7.47737C11.5527 6.65048 12 5.54977 12 4.38016C12.0018 3.20873 11.5544 2.10802 10.745 1.28113Z" fill="url(#paint0_linear_454:1011)"/>
<defs>
<linearGradient id="paint0_linear_454:1011" x1="21.625" y1="31.2083" x2="-2.19647" y2="29.4305" gradientUnits="userSpaceOnUse">
<stop stop-color="#CF431E"/>
<stop offset="1" stop-color="#E6B12B"/>
</linearGradient>
</defs>
</svg>
