<svg width="24" height="24" viewBox="0 0 24 24" fill="none" xmlns="http://www.w3.org/2000/svg">
<path d="M9 1.91746V0.839349C9 0.375804 8.71039 0 8.35317 0H5.64683C5.28961 0 5 0.375804 5 0.839349V2C5.20931 1.94623 5.42553 1.91741 5.64683 1.91741H9V1.91746Z" fill="#FBFBFB"/>
<path d="M10 11H15V16H10V11Z" fill="#FBFBFB"/>
<path d="M20.2959 0H12.7542C12.5674 0 12.3883 0.0741094 12.2563 0.205969L9.44587 3.01252H5.21248C4.0009 3.01252 3 3.99047 3 5.22188V23.2969C3 23.6852 3.31525 24 3.7041 24H20.2959C20.6847 24 21 23.6852 21 23.2969V0.703125C21 0.314812 20.6848 0 20.2959 0ZM17.7767 18.2806C18.0517 18.5552 18.0517 19.0004 17.7767 19.275C17.5018 19.5495 17.0559 19.5495 16.781 19.275L14.7247 17.2215H9.27496L7.2187 19.275C6.94377 19.5495 6.49793 19.5495 6.22296 19.275C5.94798 19.0004 5.94798 18.5552 6.22296 18.2806L8.27959 16.2268V10.7853L6.22296 8.73155C5.94798 8.45695 5.94798 8.01178 6.22296 7.73719C6.49789 7.46259 6.94372 7.46259 7.2187 7.73719L9.27519 9.79083H14.7246L16.7811 7.73719C17.056 7.46259 17.5018 7.46259 17.7768 7.73719C18.0518 8.01178 18.0518 8.45695 17.7768 8.73155L15.7207 10.7848V16.2273L17.7767 18.2806ZM19.5918 3.01252H11.4374L13.0458 1.40625H19.5918V3.01252Z" fill="#FBFBFB"/>
</svg>
