<svg width="68" height="46" viewBox="0 0 68 46" fill="none" xmlns="http://www.w3.org/2000/svg">
<path fill-rule="evenodd" clip-rule="evenodd" d="M0 1C0 0.447715 0.447715 0 1 0H7C7.55228 0 8 0.447715 8 1V3.00758C10.686 1.11288 13.9631 0 17.5 0C24.556 0 30.5775 4.42902 32.9362 10.6586C35.5015 4.40466 41.6509 0 48.8291 0C58.3124 0 66 7.68767 66 17.1709V18.7262L56.6789 25.6086V18.8033C56.6789 13.9414 52.7375 10 47.8756 10C43.0137 10 39.0723 13.9414 39.0723 18.8033V27H39.068V45.3456C39.068 45.707 38.775 46 38.4136 46H28.6544C28.293 46 28 45.707 28 45.3456V27V25V19C28 14.0294 23.9706 10 19 10C14.0294 10 10 14.0294 10 19V24V27V45.3456C10 45.707 9.70702 46 9.34562 46H7H3H1C0.447715 46 0 45.5523 0 45V1ZM56 31.2236L61.5232 27H66V30.5L56 38V31.2236ZM56 43V45.3456C56 45.707 56.293 46 56.6544 46H65.3456C65.707 46 66 45.707 66 45.3456V35.5L56 43ZM61.5286 27L66 27V23.6984L61.5286 27Z" fill="#64D4F1"/>
</svg>
