<svg width="24" height="24" viewBox="0 0 24 24" fill="none" xmlns="http://www.w3.org/2000/svg">
<path d="M2.21299 10H0.028942C0.0189234 10 0.0100186 10.0014 0 10.0021V10.9979C0.0100186 10.9979 0.0189234 11 0.028942 11H2.21299C2.64824 11 3 10.7761 3 10.5007C3 10.2239 2.64824 10 2.21299 10Z" fill="#FBFBFB"/>
<path d="M2.21299 12H0.028942C0.0189234 12 0.0100186 12.0014 0 12.0021V12.9979C0.0100186 12.9979 0.0189234 13 0.028942 13H2.21299C2.64824 13 3 12.7761 3 12.5007C3 12.2253 2.64824 12 2.21299 12Z" fill="#FBFBFB"/>
<path d="M2.21299 14H0.028942C0.0189234 14 0.0100186 14.0014 0 14.0021V14.9979C0.0100186 14.9979 0.0189234 15 0.028942 15H2.21299C2.64824 15 3 14.7761 3 14.5007C3 14.2253 2.64824 14 2.21299 14Z" fill="#FBFBFB"/>
<path d="M2.21299 16H0.028942C0.0189234 16 0.0100186 16.0014 0 16.0021V16.9979C0.0100186 16.9979 0.0189234 17 0.028942 17H2.21299C2.64824 17 3 16.7761 3 16.5007C3 16.2253 2.64824 16 2.21299 16Z" fill="#FBFBFB"/>
<path d="M2.21299 18H0.028942C0.0189234 18 0.0100186 18.0014 0 18.0021V18.9979C0.0100186 18.9979 0.0189234 19 0.028942 19H2.21299C2.64824 19 3 18.7761 3 18.5007C3 18.2253 2.64824 18 2.21299 18Z" fill="#FBFBFB"/>
<path d="M11.5281 13.7737C11.4027 13.7737 11.2774 13.7677 11.152 13.7687C9.46583 13.7657 7.78467 13.817 6.10452 13.9278C6.09644 13.9026 6.08835 13.8784 6.08026 13.8543C6.11767 13.7979 6.15002 13.7365 6.19247 13.6841C6.66053 13.1022 7.12151 12.5152 7.60473 11.9464C7.6947 11.8407 7.86959 11.7591 8.00909 11.7511C8.98665 11.6937 9.96623 11.6222 10.9448 11.6252C11.0135 11.6252 11.0833 11.6262 11.152 11.6272C11.2208 11.6262 11.2895 11.6252 11.3593 11.6252C11.7424 11.6242 12.1256 11.6403 12.5077 11.6564C12.6593 11.444 12.8251 11.2426 13 11.0503C12.3844 11.0322 11.7677 11.0121 11.152 11C10.0259 11.0232 8.89971 11.0644 7.77355 11.0916C7.51577 11.0977 7.31459 11.1973 7.15386 11.3967C6.85867 11.7652 6.53922 12.1145 6.26829 12.4981C6.05499 12.7991 5.81439 12.9502 5.43833 12.8928C5.25333 12.8646 5.06126 12.8887 4.87221 12.8887C4.20804 12.8887 4.16154 12.927 4.01091 13.5673C3.98058 13.6972 4.01091 13.7697 4.13424 13.822C4.3799 13.9268 4.6205 14.0425 4.87525 14.1573C4.85503 14.2016 4.84997 14.2157 4.84189 14.2278C4.8156 14.262 4.79134 14.2983 4.76 14.3285C4.3708 14.7201 4.24949 15.1983 4.2596 15.737C4.27577 16.5404 4.26364 17.3438 4.26364 18.1472C4.26364 18.6396 4.26162 19.1319 4.26465 19.6242C4.26566 19.891 4.3708 19.9977 4.62959 19.9977C5.34128 20.0008 6.05398 20.0008 6.76566 19.9977C7.00121 19.9967 7.09522 19.9021 7.1023 19.6695C7.10533 19.5507 7.1023 19.4309 7.1023 19.3151C8.45895 19.3151 9.80651 19.3151 11.151 19.3151C11.6747 19.3151 12.2034 19.3151 12.7281 19.3151C11.8516 18.2228 11.3239 16.8414 11.3239 15.3373C11.3249 14.7986 11.3997 14.2761 11.5281 13.7737ZM7.69874 16.0561C7.67751 16.0984 7.59765 16.1326 7.54306 16.1367C7.40558 16.1477 6.15709 16.0883 5.67185 16.0763C5.27153 16.0672 5.06429 15.8427 5.05418 15.444C5.04003 14.9225 5.05519 14.9033 5.57784 14.9607C6.12575 15.0221 6.67266 15.0926 7.21856 15.1681C7.6391 15.2255 7.88273 15.6766 7.69874 16.0561Z" fill="#FBFBFB"/>
<path d="M11.5 4C11.7751 4 12 3.7764 12 3.50036C12 3.2236 11.7751 3 11.5 3C11.2242 3 11 3.2236 11 3.50036C11 3.7764 11.2234 4 11.5 4Z" fill="#FBFBFB"/>
<path d="M11.4996 5C11.223 5 11 5.22362 11 5.5C11 5.77638 11.223 6 11.4996 6C11.7754 6 12 5.77638 12 5.5C11.9992 5.22362 11.7754 5 11.4996 5Z" fill="#FBFBFB"/>
<path d="M11.5 7C11.2228 7 11 7.2238 11 7.49961C11 7.7762 11.2228 8 11.5 8C11.7756 8 12 7.7762 12 7.49961C11.9992 7.2238 11.7748 7 11.5 7Z" fill="#FBFBFB"/>
<path d="M11 9.5C11 9.77638 11.2236 10 11.5008 10C11.7764 10 12 9.77638 12 9.5C12 9.22441 11.7764 9 11.5008 9C11.2236 9.00079 11 9.22441 11 9.5Z" fill="#FBFBFB"/>
<path d="M7.5 4C7.77511 4 8 3.77656 8 3.5C8 3.22416 7.77511 3 7.5 3C7.22343 3 7 3.22344 7 3.5C7 3.77656 7.22343 4 7.5 4Z" fill="#FBFBFB"/>
<path d="M7.49961 6C7.7762 6 8 5.77638 8 5.5C8 5.22362 7.7762 5 7.49961 5C7.22301 5 7 5.22362 7 5.5C7.00079 5.77559 7.2238 6 7.49961 6Z" fill="#FBFBFB"/>
<path d="M6.5 8C6.77559 8 7 7.7762 7 7.49961C7 7.2238 6.77559 7 6.5 7C6.22362 7 6 7.2238 6 7.49961C6.00079 7.7762 6.22362 8 6.5 8Z" fill="#FBFBFB"/>
<path d="M6.50039 10C6.7762 10 7 9.77638 7 9.5C7 9.22441 6.7762 9 6.50039 9C6.2238 9 6 9.22362 6 9.5C6 9.77717 6.2238 10 6.50039 10Z" fill="#FBFBFB"/>
<path d="M14.5 4C14.7766 4 15 3.7764 15 3.49964C15 3.2236 14.7766 3 14.5 3C14.2249 3 14 3.2236 14 3.49964C14 3.7764 14.2249 4 14.5 4Z" fill="#FBFBFB"/>
<path d="M14 5.49961C14 5.7762 14.2238 6 14.5004 6C14.777 6 15 5.7762 15 5.49961C15 5.22301 14.777 5 14.5004 5C14.2238 5 14 5.2238 14 5.49961Z" fill="#FBFBFB"/>
<path d="M15 7.49961C15 7.7762 15.2244 8 15.5 8C15.7764 8 16 7.7762 16 7.49961C16 7.22301 15.7772 7 15.5 7C15.2244 7 15 7.22301 15 7.49961Z" fill="#FBFBFB"/>
<path d="M18 10C14.6864 10 12 12.4625 12 15.5C12 18.5375 14.6864 21 18 21C21.3136 21 24 18.5375 24 15.5C24 12.4625 21.3136 10 18 10ZM18 19.5317C15.5748 19.5317 13.6007 17.7221 13.6007 15.499C13.6007 13.276 15.5738 11.4663 18 11.4663C20.4262 11.4663 22.3993 13.275 22.3993 15.499C22.3993 17.7231 20.4262 19.5317 18 19.5317Z" fill="#FBFBFB"/>
<path d="M17.9995 12C15.794 12 14 13.7938 14 16C14 18.2053 15.794 20 17.9995 20C20.205 20 22 18.2053 22 16C22 13.7938 20.205 12 17.9995 12ZM17.9995 19.8542C15.8743 19.8542 14.1448 18.1249 14.1448 16C14.1448 15.8185 14.1607 15.6411 14.1854 15.4665C14.2142 15.2573 14.2568 15.0521 14.3183 14.8557C14.8072 13.2881 16.273 12.1458 17.9995 12.1458C20.1247 12.1458 21.8542 13.8751 21.8542 16C21.8542 16.3986 21.7937 16.7833 21.6807 17.1453C21.1918 18.7119 19.727 19.8542 17.9995 19.8542Z" fill="#FBFBFB"/>
<path d="M20.0562 13.0197L17.9724 14.7097L18.4467 12.1247C18.145 12.0457 17.8284 12 17.5 12C17.1716 12 16.856 12.0457 16.5533 12.1247L17.0276 14.7097L14.9438 13.0197C14.7199 13.2349 14.5256 13.4796 14.3659 13.7452C14.2071 14.0118 14.0828 14.2994 14 14.6041L16.5552 15.5L14 16.3959C14.1667 17.0044 14.4951 17.549 14.9438 17.9803L17.0276 16.2903L16.5533 18.8753C16.855 18.9543 17.1716 19 17.5 19C17.8284 19 18.144 18.9543 18.4467 18.8753L17.9724 16.2912L20.0562 17.9812C20.2801 17.7661 20.4744 17.5214 20.6341 17.2557C20.7929 16.9891 20.9172 16.7016 21 16.3969L18.4448 15.501L21 14.605C20.8333 13.9947 20.5049 13.4501 20.0562 13.0197ZM17.4477 14.8192C17.5533 14.7916 17.6617 14.8516 17.6903 14.9535C17.7189 15.0554 17.6568 15.1601 17.5513 15.1877C17.4458 15.2153 17.3373 15.1553 17.3087 15.0535C17.2811 14.9516 17.3432 14.8468 17.4477 14.8192ZM16.9014 15.5628C16.7978 15.5305 16.7406 15.4229 16.7742 15.3229C16.8077 15.2229 16.9191 15.1677 17.0227 15.2001C17.1262 15.2325 17.1834 15.34 17.1499 15.44C17.1174 15.54 17.0059 15.5952 16.9014 15.5628ZM17.3679 16.0551C17.3343 16.1551 17.2229 16.2103 17.1193 16.1779C17.0158 16.1455 16.9586 16.0379 16.9921 15.938C17.0256 15.838 17.1371 15.7828 17.2406 15.8152C17.3442 15.8475 17.4014 15.9542 17.3679 16.0551ZM17.6144 15.6533C17.6124 15.6552 17.6114 15.6571 17.6085 15.659C17.6065 15.6609 17.6036 15.6609 17.6006 15.6619C17.5976 15.6638 17.5947 15.6666 17.5917 15.6676C17.5848 15.6714 17.5769 15.6723 17.569 15.6752C17.5631 15.6771 17.5582 15.6819 17.5513 15.6838C17.5483 15.6847 17.5464 15.6838 17.5434 15.6847C17.5385 15.6857 17.5335 15.6866 17.5286 15.6876C17.5256 15.6876 17.5227 15.6895 17.5197 15.6895C17.5187 15.6895 17.5178 15.6895 17.5168 15.6895C17.5099 15.6895 17.502 15.6885 17.4951 15.6885C17.4852 15.6885 17.4763 15.6895 17.4665 15.6876C17.4625 15.6866 17.4576 15.6857 17.4536 15.6847C17.4497 15.6838 17.4467 15.6838 17.4428 15.6828C17.4418 15.6828 17.4398 15.6828 17.4389 15.6828C17.432 15.6809 17.428 15.6761 17.4211 15.6733C17.4122 15.6695 17.4034 15.6676 17.3955 15.6628C17.3915 15.66 17.3876 15.6571 17.3836 15.6542C17.3817 15.6523 17.3787 15.6523 17.3767 15.6504C17.3757 15.6495 17.3748 15.6485 17.3738 15.6476C17.3728 15.6466 17.3728 15.6457 17.3718 15.6457C17.3669 15.6409 17.3629 15.6362 17.358 15.6314C17.3521 15.6247 17.3452 15.619 17.3393 15.6123C17.3373 15.6104 17.3353 15.6095 17.3333 15.6066C17.3314 15.6047 17.3314 15.6019 17.3304 15.599C17.3284 15.5962 17.3254 15.5933 17.3245 15.5905C17.3205 15.5838 17.3195 15.5762 17.3166 15.5686C17.3146 15.5628 17.3097 15.5581 17.3077 15.5514C17.3067 15.5486 17.3077 15.5467 17.3067 15.5438C17.3057 15.539 17.3047 15.5343 17.3037 15.5295C17.3037 15.5267 17.3018 15.5238 17.3018 15.5209C17.3018 15.52 17.3018 15.5181 17.3018 15.5171C17.3018 15.5105 17.3028 15.5038 17.3028 15.4971C17.3028 15.4876 17.3018 15.4791 17.3037 15.4695C17.3047 15.4657 17.3057 15.461 17.3067 15.4572C17.3077 15.4533 17.3077 15.4505 17.3087 15.4467C17.3087 15.4457 17.3087 15.4438 17.3087 15.4429C17.3107 15.4362 17.3156 15.4324 17.3185 15.4257C17.3225 15.4172 17.3245 15.4086 17.3294 15.401C17.3323 15.3972 17.3353 15.3934 17.3383 15.3896C17.3402 15.3876 17.3402 15.3848 17.3422 15.3829C17.3432 15.3819 17.3442 15.381 17.3452 15.38C17.3462 15.3781 17.3481 15.3772 17.3491 15.3762C17.3531 15.3724 17.358 15.3686 17.3619 15.3648C17.3688 15.3591 17.3748 15.3524 17.3817 15.3467C17.3836 15.3448 17.3846 15.3429 17.3876 15.341C17.3895 15.3391 17.3925 15.3391 17.3955 15.3381C17.3984 15.3362 17.4014 15.3334 17.4043 15.3324C17.4053 15.3315 17.4073 15.3315 17.4093 15.3305C17.4152 15.3286 17.4211 15.3267 17.427 15.3248C17.4329 15.3229 17.4379 15.3181 17.4448 15.3162C17.4477 15.3153 17.4497 15.3162 17.4527 15.3153C17.4576 15.3143 17.4625 15.3134 17.4675 15.3124C17.4704 15.3124 17.4734 15.3105 17.4763 15.3105C17.4793 15.3105 17.4822 15.3105 17.4852 15.3115C17.4901 15.3124 17.4951 15.3124 17.501 15.3124C17.5108 15.3124 17.5197 15.3115 17.5296 15.3134C17.5335 15.3143 17.5385 15.3153 17.5424 15.3162C17.5464 15.3172 17.5493 15.3172 17.5533 15.3181C17.5542 15.3181 17.5562 15.3181 17.5572 15.3181C17.5641 15.32 17.568 15.3248 17.575 15.3277C17.5838 15.3315 17.5917 15.3334 17.5996 15.3381C17.6036 15.341 17.6075 15.3439 17.6124 15.3467C17.6144 15.3486 17.6174 15.3486 17.6193 15.3505C17.6203 15.3515 17.6213 15.3524 17.6223 15.3534C17.6252 15.3562 17.6272 15.3591 17.6302 15.3619C17.6321 15.3648 17.6351 15.3677 17.6381 15.3705C17.644 15.3772 17.6509 15.3829 17.6558 15.3896C17.6578 15.3915 17.6598 15.3924 17.6617 15.3953C17.6637 15.3972 17.6637 15.4 17.6647 15.4029C17.6667 15.4057 17.6686 15.4086 17.6706 15.4115C17.6706 15.4124 17.6716 15.4124 17.6726 15.4134C17.6755 15.4191 17.6755 15.4267 17.6785 15.4334C17.6805 15.4391 17.6854 15.4438 17.6874 15.4505C17.6884 15.4533 17.6874 15.4553 17.6884 15.4581C17.6893 15.4629 17.6903 15.4676 17.6913 15.4724C17.6913 15.4752 17.6933 15.4781 17.6933 15.481C17.6933 15.4819 17.6943 15.4829 17.6943 15.4838C17.6972 15.4895 17.6943 15.4971 17.6943 15.5038C17.6943 15.5133 17.6953 15.5219 17.6933 15.5314C17.6923 15.5362 17.6913 15.54 17.6903 15.5438C17.6893 15.5476 17.6893 15.5505 17.6884 15.5543C17.6884 15.5552 17.6884 15.5571 17.6884 15.5581C17.6874 15.5619 17.6854 15.5647 17.6824 15.5676C17.6805 15.5695 17.6795 15.5724 17.6785 15.5752C17.6746 15.5838 17.6726 15.5914 17.6677 15.599C17.6647 15.6028 17.6617 15.6066 17.6588 15.6114C17.6568 15.6133 17.6568 15.6162 17.6548 15.6181C17.6538 15.619 17.6529 15.62 17.6519 15.6209C17.6509 15.6219 17.6509 15.6238 17.6499 15.6247C17.646 15.6295 17.6391 15.6323 17.6351 15.6362C17.6282 15.6419 17.6223 15.6476 17.6144 15.6533ZM17.9872 16.1075C17.9191 16.1903 17.7949 16.2036 17.7101 16.1379C17.6243 16.0722 17.6105 15.9523 17.6785 15.8704C17.7465 15.7875 17.8708 15.7742 17.9556 15.8399C18.0404 15.9047 18.0542 16.0246 17.9872 16.1075ZM18.1469 15.5419C18.0562 15.6 17.9329 15.5762 17.8728 15.4876C17.8126 15.4 17.8373 15.281 17.929 15.2229C18.0197 15.1649 18.143 15.1887 18.2032 15.2772C18.2633 15.3648 18.2377 15.4838 18.1469 15.5419Z" fill="#FBFBFB"/>
</svg>
