<svg width="24" height="24" viewBox="0 0 24 24" fill="none" xmlns="http://www.w3.org/2000/svg">
<path d="M12 0C5.37165 0 0 5.37296 0 12C0 18.627 5.37296 24 12 24C18.627 24 24 18.627 24 12C24 5.37296 18.6283 0 12 0ZM12 20.7995C7.14827 20.7995 3.20183 16.8517 3.20183 12C3.20183 7.14827 7.14827 3.20183 12 3.20183C16.8517 3.20183 20.7995 7.14827 20.7995 12C20.7995 16.8517 16.8517 20.7995 12 20.7995Z" fill="#FBFBFB"/>
<path d="M12.4993 4C7.81276 4 4 7.81247 4 12.5C4 17.1862 7.81276 21 12.4993 21C17.1859 21 21 17.1862 21 12.5C20.9987 7.81247 17.1859 4 12.4993 4ZM12.4993 20.6904C7.98333 20.6904 4.30833 17.0157 4.30833 12.5C4.30833 12.1143 4.34244 11.7378 4.39492 11.3665C4.45659 10.9217 4.54712 10.4862 4.67832 10.0677C5.71745 6.73538 8.8309 4.30962 12.5007 4.30962C17.0167 4.30962 20.6917 7.98433 20.6917 12.5C20.6917 13.3462 20.5618 14.1635 20.323 14.9323C19.2825 18.2646 16.1691 20.6904 12.4993 20.6904Z" fill="#FBFBFB"/>
<path d="M17.9788 6.18406L13.5139 9.80637L14.5298 4.26681C13.8824 4.09783 13.2047 4 12.502 4C11.7993 4 11.1216 4.09783 10.4742 4.26681L11.49 9.80637L7.02518 6.18406C6.54487 6.64526 6.12773 7.16873 5.78691 7.7392C5.44609 8.30967 5.18028 8.92716 5.00132 9.58021L10.4768 11.5L5 13.4198C5.35793 14.7234 6.06193 15.8923 7.02255 16.8159L11.4874 13.1936L10.4715 18.7332C11.119 18.9022 11.7966 19 12.4993 19C13.202 19 13.8797 18.9022 14.5272 18.7332L13.5113 13.1936L17.9761 16.8159C18.4564 16.3547 18.8736 15.8313 19.2144 15.2608C19.5552 14.6903 19.821 14.0728 20 13.4198L14.5245 11.5L20 9.58021C19.6434 8.27537 18.9394 7.10774 17.9788 6.18406ZM12.3888 10.0401C12.6138 9.98043 12.8467 10.1088 12.9086 10.3273C12.9704 10.5446 12.8375 10.7694 12.6112 10.8292C12.3862 10.8889 12.1533 10.7605 12.0914 10.542C12.0309 10.3247 12.1638 10.0999 12.3888 10.0401ZM11.2177 11.6347C10.9953 11.5661 10.8729 11.3348 10.9439 11.1201C11.015 10.9054 11.2545 10.7872 11.4769 10.8558C11.6993 10.9244 11.8217 11.1557 11.7506 11.3704C11.6795 11.5851 11.4414 11.7033 11.2177 11.6347ZM12.2164 12.6892C12.1454 12.9039 11.9059 13.0221 11.6835 12.9535C11.4611 12.8849 11.3387 12.6536 11.4098 12.4389C11.4808 12.2242 11.7203 12.106 11.9427 12.1747C12.1664 12.2445 12.2888 12.4745 12.2164 12.6892ZM12.7467 11.8291C12.7415 11.8329 12.7388 11.838 12.7349 11.8405C12.7296 11.8443 12.7244 11.8443 12.7191 11.8469C12.7125 11.8507 12.7073 11.8558 12.6994 11.8596C12.6836 11.8672 12.6665 11.8697 12.6507 11.8748C12.6375 11.8799 12.627 11.8901 12.6125 11.8926C12.6072 11.8939 12.6007 11.8926 12.5954 11.8939C12.5849 11.8964 12.5743 11.8989 12.5638 11.9002C12.5572 11.9015 12.552 11.9028 12.5454 11.904C12.5428 11.904 12.5415 11.904 12.5388 11.904C12.523 11.904 12.5086 11.9015 12.4928 11.9015C12.4717 11.9015 12.452 11.9028 12.4309 11.9002C12.4217 11.8989 12.4125 11.8964 12.4033 11.8951C12.3954 11.8939 12.3875 11.8926 12.3809 11.8901C12.3783 11.8888 12.3756 11.8901 12.3717 11.8888C12.3572 11.885 12.348 11.8748 12.3349 11.8685C12.3164 11.8608 12.298 11.8558 12.2809 11.8456C12.2717 11.8405 12.2638 11.8342 12.2546 11.8278C12.2493 11.824 12.2441 11.824 12.2388 11.8202C12.2362 11.8189 12.2362 11.8164 12.2335 11.8138C12.2322 11.8126 12.2309 11.81 12.2296 11.8087C12.2191 11.7986 12.2112 11.7884 12.2006 11.7782C12.1875 11.7643 12.173 11.7528 12.1612 11.7363C12.1572 11.7312 12.1519 11.73 12.1493 11.7249C12.1454 11.7198 12.1454 11.7147 12.1427 11.7096C12.1388 11.7033 12.1322 11.6969 12.1296 11.6906C12.1217 11.6766 12.119 11.6601 12.1138 11.6436C12.1085 11.6309 12.098 11.6207 12.094 11.6067C12.0927 11.6016 12.094 11.5953 12.0927 11.5902C12.0901 11.58 12.0875 11.5699 12.0861 11.5597C12.0848 11.5534 12.0822 11.547 12.0822 11.5407C12.0822 11.5381 12.0822 11.5356 12.0822 11.5318C12.0822 11.5178 12.0848 11.5038 12.0848 11.4898C12.0848 11.4695 12.0835 11.4504 12.0861 11.4314C12.0875 11.4225 12.0901 11.4136 12.0914 11.4047C12.0927 11.3971 12.094 11.3895 12.0967 11.3831C12.098 11.3806 12.0967 11.378 12.098 11.3755C12.1019 11.3615 12.1125 11.3526 12.119 11.3399C12.1269 11.3221 12.1322 11.3043 12.1427 11.2878C12.148 11.2789 12.1546 11.2713 12.1612 11.2624C12.1651 11.2573 12.1651 11.2522 12.169 11.2472C12.1704 11.2446 12.1743 11.2446 12.1756 11.2421C12.1783 11.2395 12.1822 11.237 12.1848 11.2345C12.1941 11.2268 12.2033 11.2192 12.2125 11.2103C12.227 11.1976 12.2388 11.1836 12.2559 11.1722C12.2612 11.1684 12.2625 11.1633 12.2677 11.1608C12.273 11.157 12.2783 11.157 12.2835 11.1544C12.2901 11.1506 12.2967 11.1455 12.3033 11.1417C12.3059 11.1404 12.3099 11.1392 12.3125 11.1392C12.3256 11.1341 12.3388 11.1315 12.3506 11.1265C12.3638 11.1214 12.3743 11.1125 12.3888 11.1087C12.3941 11.1074 12.4006 11.1087 12.4059 11.1074C12.4164 11.1049 12.427 11.1023 12.4375 11.101C12.4441 11.0998 12.4507 11.0972 12.4572 11.0972C12.4638 11.0972 12.4704 11.0985 12.477 11.0985C12.4875 11.0998 12.4993 11.101 12.5099 11.101C12.5309 11.101 12.5507 11.0998 12.5704 11.1023C12.5796 11.1036 12.5888 11.1061 12.598 11.1074C12.6059 11.1087 12.6138 11.1099 12.6217 11.1125C12.6244 11.1138 12.627 11.1125 12.6296 11.1138C12.6441 11.1176 12.6533 11.1277 12.6665 11.1341C12.6849 11.1417 12.7033 11.1468 12.7204 11.157C12.7296 11.162 12.7375 11.1684 12.7467 11.1747C12.752 11.1786 12.7573 11.1786 12.7625 11.1824C12.7652 11.1836 12.7652 11.1874 12.7678 11.1887C12.7744 11.1938 12.7796 11.2002 12.7849 11.2065C12.7902 11.2129 12.7954 11.2179 12.802 11.2243C12.8152 11.2383 12.8296 11.2497 12.8402 11.2649C12.8441 11.27 12.8494 11.2726 12.852 11.2764C12.856 11.2815 12.856 11.2865 12.8586 11.2916C12.8625 11.298 12.8678 11.3031 12.8717 11.3094C12.8717 11.3094 12.8717 11.3094 12.8717 11.3107C12.8731 11.312 12.8744 11.3132 12.8744 11.3145C12.881 11.3272 12.8823 11.3437 12.8875 11.3577C12.8928 11.3704 12.902 11.3806 12.906 11.3945C12.9073 11.3996 12.906 11.406 12.9073 11.4111C12.9099 11.4212 12.9125 11.4314 12.9139 11.4416C12.9152 11.4479 12.9165 11.4543 12.9178 11.4606C12.9178 11.4632 12.9191 11.4644 12.9191 11.4657C12.9204 11.4809 12.9139 11.4962 12.9139 11.5114C12.9139 11.5318 12.9152 11.5508 12.9125 11.5699C12.9112 11.5788 12.9086 11.5877 12.9073 11.5966C12.906 11.6042 12.9046 11.6118 12.902 11.6182C12.9007 11.6207 12.902 11.6232 12.9007 11.6258C12.8981 11.6334 12.8928 11.6398 12.8889 11.6461C12.8849 11.6512 12.8823 11.6563 12.8796 11.6614C12.8717 11.6791 12.8665 11.6969 12.856 11.7135C12.8507 11.7223 12.8441 11.73 12.8375 11.7389C12.8336 11.7439 12.8336 11.749 12.8296 11.7541C12.8283 11.7566 12.8257 11.7566 12.8231 11.7592C12.8217 11.7617 12.8204 11.7643 12.8191 11.7668C12.8099 11.777 12.7967 11.7821 12.7862 11.791C12.7744 11.8037 12.7625 11.8176 12.7467 11.8291ZM13.5429 12.8023C13.3981 12.9789 13.131 13.0081 12.9481 12.8684C12.7652 12.7286 12.7349 12.4707 12.8796 12.2941C13.0244 12.1175 13.2915 12.087 13.4744 12.228C13.6587 12.3691 13.6889 12.6257 13.5429 12.8023ZM13.8863 11.5902C13.6916 11.7147 13.4284 11.6626 13.2994 11.4746C13.1705 11.2865 13.2244 11.0324 13.4192 10.9079C13.6139 10.7834 13.8771 10.8355 14.0061 11.0235C14.135 11.2116 14.0811 11.4657 13.8863 11.5902Z" fill="#FBFBFB"/>
</svg>
