<svg width="24" height="24" viewBox="0 0 24 24" fill="none" xmlns="http://www.w3.org/2000/svg">
<path d="M22.9961 8H1V9C1 9.53043 1.19315 10.0391 1.53697 10.4142C1.88079 10.7893 2.3471 11 2.83333 11H5.58333C6.06956 11 6.53588 10.7893 6.8797 10.4142C7.22351 10.0391 7.41667 9.53043 7.41667 9C7.41667 9.53043 7.60982 10.0391 7.95364 10.4142C8.29745 10.7893 8.76377 11 9.25 11H14.75C15.2362 11 15.7025 10.7893 16.0464 10.4142C16.3902 10.0391 16.5833 9.53043 16.5833 9C16.5833 9.53043 16.7765 10.0391 17.1203 10.4142C17.4641 10.7893 17.9304 11 18.4167 11H21.1667C21.6529 11 22.1192 10.7893 22.463 10.4142C22.8068 10.0391 23 9.53043 23 9V8H22.9961Z" fill="#FBFBFB"/>
<path d="M8 1H3.62864C3.42128 0.99999 3.21955 1.06063 3.05399 1.17275C2.88842 1.28488 2.76801 1.44238 2.71099 1.62143L1 7H6.66385L8 1Z" fill="#FBFBFB"/>
<path d="M14.7038 1H10.2962L9 7H16L14.7038 1Z" fill="#FBFBFB"/>
<path d="M23 7L21.289 1.62143C21.232 1.44238 21.1116 1.28488 20.946 1.17275C20.7804 1.06063 20.5787 0.99999 20.3714 1L16 1L17.3362 7H23Z" fill="#FBFBFB"/>
<path d="M18.3636 11.7198C17.6924 11.7204 17.0447 11.464 16.5455 11C16.0462 11.464 15.3985 11.7204 14.7273 11.7198H9.27273C8.60148 11.7204 7.95379 11.464 7.45455 11C6.9553 11.464 6.30762 11.7204 5.63636 11.7198H2.90909C2.59919 11.7191 2.2917 11.6635 2 11.5553V22.06C2 22.3093 2.09578 22.5484 2.26627 22.7247C2.43675 22.901 2.66799 23 2.90909 23H4.72727V14.5399C4.72727 14.2906 4.82305 14.0515 4.99354 13.8752C5.16403 13.6989 5.39526 13.5998 5.63636 13.5998H10.1818C10.4229 13.5998 10.6542 13.6989 10.8246 13.8752C10.9951 14.0515 11.0909 14.2906 11.0909 14.5399V23H21.0909C21.332 23 21.5632 22.901 21.7337 22.7247C21.9042 22.5484 22 22.3093 22 22.06V11.5553C21.7083 11.6635 21.4008 11.7191 21.0909 11.7198H18.3636ZM19.2727 17.3599C19.2727 17.6092 19.177 17.8483 19.0065 18.0246C18.836 18.2009 18.6047 18.2999 18.3636 18.2999H13.8182C13.5771 18.2999 13.3458 18.2009 13.1754 18.0246C13.0049 17.8483 12.9091 17.6092 12.9091 17.3599V14.5399C12.9091 14.2906 13.0049 14.0515 13.1754 13.8752C13.3458 13.6989 13.5771 13.5998 13.8182 13.5998H18.3636C18.6047 13.5998 18.836 13.6989 19.0065 13.8752C19.177 14.0515 19.2727 14.2906 19.2727 14.5399V17.3599Z" fill="#FBFBFB"/>
</svg>
